<?xml version="1.0" standalone="no"?>
<!DOCTYPE svg PUBLIC "-//W3C//DTD SVG 20010904//EN"
 "http://www.w3.org/TR/2001/REC-SVG-20010904/DTD/svg10.dtd">
<svg version="1.0" xmlns="http://www.w3.org/2000/svg"
 width="300.000000pt" height="300.000000pt" viewBox="0 0 300.000000 300.000000"
 preserveAspectRatio="xMidYMid meet">

<g transform="translate(0.000000,300.000000) scale(0.100000,-0.100000)"
fill="#000000" stroke="none">
<path d="M1795 1938 c-19 -11 -18 -12 9 -19 34 -10 47 -4 39 16 -6 18 -21 19
-48 3z"/>
<path d="M1680 1885 c-13 -14 -20 -25 -16 -25 13 0 66 34 66 42 0 16 -27 7
-50 -17z"/>
<path d="M2070 1881 c0 -5 19 -20 42 -33 56 -31 59 -46 9 -54 -34 -5 -41 -10
-41 -29 0 -18 -7 -25 -30 -30 -16 -4 -30 -10 -30 -14 0 -3 -15 -15 -34 -25
-19 -10 -36 -27 -39 -37 -4 -13 -14 -19 -34 -19 -35 0 -58 -14 -48 -30 4 -7
10 -35 14 -64 l6 -51 95 3 c52 2 100 8 107 14 7 5 25 7 42 3 25 -5 123 6 173
21 9 3 24 27 33 55 19 55 11 91 -26 125 -10 9 -19 23 -19 30 0 7 -14 22 -31
34 -19 14 -28 28 -24 37 7 21 -13 43 -39 43 -11 0 -39 7 -61 15 -47 17 -65 18
-65 6z"/>
<path d="M1010 1845 c0 -8 7 -15 15 -15 8 0 15 4 15 9 0 5 -7 11 -15 15 -9 3
-15 0 -15 -9z"/>
<path d="M960 1815 c0 -8 -4 -15 -10 -15 -5 0 -10 -9 -10 -19 0 -11 -4 -23
-10 -26 -5 -3 -10 -1 -10 4 0 19 -18 12 -25 -10 -5 -13 -2 -25 6 -30 20 -12
49 9 49 37 0 14 11 35 26 49 26 24 26 25 5 25 -12 0 -21 -6 -21 -15z"/>
<path d="M925 1688 l-30 -18 50 6 c46 5 52 4 79 -25 39 -41 66 -41 66 -1 0 17
-4 30 -10 30 -5 0 -10 -4 -10 -10 0 -18 -24 -10 -48 15 -27 28 -55 29 -97 3z"/>
<path d="M1000 1587 c-9 -7 -14 -24 -12 -44 3 -28 7 -32 40 -37 65 -11 271
-15 277 -6 3 4 0 10 -7 12 -7 3 -12 21 -12 41 0 22 -3 32 -8 24 -4 -6 -8 -20
-8 -29 0 -24 -16 -23 -23 2 -6 22 -45 28 -64 9 -14 -14 -124 6 -139 26 -13 18
-24 18 -44 2z"/>
<path d="M803 1564 c0 -13 3 -24 8 -24 5 0 9 2 9 4 0 2 3 11 6 19 3 8 -1 17
-9 20 -10 4 -14 -2 -14 -19z"/>
<path d="M1551 1521 c18 -52 56 -48 43 4 -4 18 -13 25 -30 25 -21 0 -22 -2
-13 -29z"/>
<path d="M830 1162 c0 -10 6 -27 14 -37 13 -18 14 -18 21 4 4 13 2 28 -5 36
-17 20 -30 19 -30 -3z"/>
<path d="M887 1094 c-3 -3 -3 -12 0 -20 4 -10 -2 -11 -25 -4 -26 7 -30 6 -24
-8 8 -23 32 -47 32 -32 0 6 4 9 9 6 5 -4 12 8 16 25 7 30 4 44 -8 33z"/>
</g>
</svg>
